<svg xmlns="http://www.w3.org/2000/svg" viewBox="0 0 1200 900"><style><![CDATA[.a{fill:#fcd2c5}.b{fill:#fff}.c{fill:#203a60}.d{fill:#00dcfc}.e{fill:#182c61}.f{fill:#27ae60}.g{fill:#00b3ff}.h{fill:#0093fc}.i{fill-rule:evenodd}.j{fill:#c4f5f7}.k{fill:#d0dae9}]]></style><defs><linearGradient id="A" x1="16.61" y1="670.32" x2="220.56" y2="670.32" gradientUnits="userSpaceOnUse"><stop offset=".01" stop-color="#fff"/><stop offset=".33" stop-color="#f3faff"/><stop offset="1" stop-color="#def1ff"/></linearGradient><clipPath id="B"><path d="M934.7 595.27h282.35V900.9H934.7z" fill="none"/></clipPath></defs><ellipse cx="118.58" cy="670.32" rx="101.98" ry="16.9" fill="url(#A)"/><path d="M1129.2 117.7l-384 101.72a17.61 17.61 0 0 0-13.11 17V528A17.62 17.62 0 0 0 747 545.43l384 59.8a17.62 17.62 0 0 0 20.33-17.41v-453.1a17.61 17.61 0 0 0-22.14-17.03z" class="e"/><path d="M1129.2 268.38l-5.92.6v184.85l7.73.47c10.7.66 20.32-2.5 20.32-6.64V274.9c-.01-4.43-10.95-7.64-22.13-6.52z" fill="#00b6ff"/><path d="M760.14 519.08l227.9 35.5V445.8l-227.9-13.5v86.8z" class="g"/><path d="M789.48 285.4l35.78-6v-55.68l-35.78 9.04v52.64z" class="f"/><g fill="#86c0f0"><path d="M830.56 228.98l57.82-14.03v-7.2l-57.82 14.62v6.6zm87.8-21.3l79.54-19.3v-8.3l-79.54 20.1v7.5zm-87.8 37.17L907.5 228v-7.38l-76.94 17.6v6.6zm43.56 7.36l14.38-2.8v-7.18l-14.38 2.95v7.03zm20.35-3.97l23.5-4.57v-7.48l-23.5 4.8v7.24zm29.95-23.93l73.48-16.07v-8.27l-73.48 16.8v7.53zm-93.86 36.38l33.83-6.6v-6.94l-33.83 6.92v6.6zm0 17.82l132.23-22.17v-7.93l-132.23 23.5v6.6zm17.94 13.28l149.4-21.45v-8.28L848.5 285v6.78zm-59.02 8.47l52.23-7.5v-6.72l-52.23 8.02v6.2z"/><path d="M789.48 317.53l30.98-3.6v-6.18l-30.98 3.88v5.9zm0 14.57l49.14-4.52v-6.36l-49.14 5v5.9zm46.84-20l54.04-6.25V299l-54.04 6.77v6.33zm65.9-7.6l33.18-3.84v-7.28l-33.18 4.15v6.97zm-7.66 17.92l76.58-7.05v-7.63l-76.58 7.78v6.9zM789.48 346.6l30.98-2.12v-6.18l-30.98 2.4v5.9zm0 14.57l109-4.9v-6.93l-109 5.94v5.9zm46.84-17.77l72.04-4.94v-7.02l-72.04 5.63v6.33zm88.35-6.06l46.47-3.18v-7.62l-46.47 3.63v7.17zm-10.3 18.22l83.54-3.76v-7.88l-83.54 4.55v7.1zm-63.73-29.1l27-2.5v-6.72l-27 2.74v6.47zm97.67 103.87l49.6 2.65v-7.88l-49.6-2.17v7.4zm-24.5-19.03l74.1 2.2v-7.88l-74.1-1.5v7.17zm-56.48 14.72l59.42 3.16V422l-59.42-2.6v6.63zm-37.57-2l26.8 1.43v-6.53l-26.8-1.18v6.28zm-24.4-16.22l58.08 1.72v-6.6l-58.08-1.17v6.05zm142.96-14.03l49.6.3v-7.88l-49.6.17v7.4zM859.88 377l138.02-2.4v-7.88l-138.02 3.7V377zm-8.63 16.17l75.5.47v-7.2l-75.5.25v6.48zm-45.9-.27l32.6.2v-6.35l-32.6.1v6.05zm-15.86-14.67l56.74-1v-6.43l-56.74 1.53v5.9zM879.66 410l29.43.88v-7.04l-29.43-.6V410z" class="i"/></g><path d="M1012.43 338.5l110.83-3.15v-187.1l-110.83 29.37V338.5z" class="j"/><path d="M1076.3 234c.27 7.76-5.67 14.65-13 15.35l.5 14.36c15.5-.8 28.74-15.17 28.15-32l-15.7 2.18.04.1z" class="f"/><path d="M1025.24 240.9v.1l9.33-1.3c-.57-16.24 10.93-32.32 27-36.18l-.43-12.18c-21.7 6-36.66 27.9-35.9 49.54z" class="c"/><path d="M1061.84 207.88a30.18 30.18 0 0 0-17.29 11.48l10.18 7.2a14.11 14.11 0 0 1 7.63-4.18c7.26-1.32 13.6 3.83 13.92 11.55l15.7-2.18c-.6-16.74-14.75-27.35-30.14-23.86z" class="d"/><path d="M1063.87 268c-16.23.6-28.73-12.15-29.3-28.4l-9.33 1.3c.8 21.6 17.1 39.13 39 39.13 12.5 0 24.46-5.6 33.36-14.95l-10.83-7.9a33.56 33.56 0 0 1-22.9 10.83z" class="b"/><path d="M1061.2 191.3l.43 12.18c17.93-4.3 34.62 7.85 35.3 27.56a36.5 36.5 0 0 1-10.11 26.19l10.83 7.9a50.27 50.27 0 0 0 14.06-36.23c-1-28.26-25.33-44.62-50.52-37.6z" class="h"/><path d="M1050.44 237.57a15.24 15.24 0 0 1 4.3-11l-10.18-7.2a31.48 31.48 0 0 0-6.37 19.85c.5 14.2 11.52 25.2 25.65 24.48l-.5-14.36c-7 .65-12.64-4.62-12.9-11.78z" class="c"/><path d="M1012.43 558.38l110.83 17.27v-140.8l-110.83-5.2v128.75z" class="j"/><path d="M1009.45 355.5l.01 4.18 24.06-1.04-.02-4.32-24.05 1.18zm47-2.3l.01 4.47 30.6-1.3-.01-4.65-30.6 1.5zm-46.97 9.6l.01 4.17 15.75-.5-.02-4.27-15.74.6zm.02 7.3v4.17l49.66-1.07-.01-4.47-49.66 1.37zm21.98-8.14l.02 4.3 31.65-1.02-.01-4.5-31.66 1.2zm37-1.4l.01 4.53 18.6-.6-.01-4.64-18.6.7zm25.16 3.72l24.47-.78v-4.84l-24.47.94v4.68zm-29.18 4.33v4.5l32.12-.7v-4.7l-32.12.9zm-26.62-14.48l.01 4.35 12.68-.54-.02-4.42-12.67.6zm-13.6 30.48l.02 4.26h14.37l-.01-4.35-14.38.1zm22.26-.14l.02 4.4 48.44-.02v-4.68l-48.46.3zm-39.42 7.5l.02 4.15 26.98.28-.01-4.3-27-.12zm2.55 7.3l.02 4.16 30.4.64-.02-4.35-30.4-.45zm.03 7.27l.02 4.17 20.78.66-.02-4.3-20.78-.53zm36.9-6.72l.01 4.4 25.13.53v-4.54l-25.14-.38zm-11.25 7.37l.02 4.33 42.95 1.37v-4.6l-42.97-1.1zm47.5 1.23v4.6l12.78.4-.01-4.7-12.78-.32zm-56.94 5.98l.02 4.26 20.27.85-.01-4.37-20.28-.74zm23.64.86v4.4l40.4 1.7v-4.64l-40.4-1.46zm45.44 1.64l.01 4.67 14 .6v-4.75l-14-.5z" class="b i"/><path d="M926.93 674.42c-1.33-1.57-2.95-4-2.95-4l-7.58 4.2s-.62.83-.22 3.23a6.16 6.16 0 0 0 .29 5c.8 1.34 5.8 3.38 8 4.1a25.5 25.5 0 0 0 9 1.23c3.73-.15 8.3-2.1 8.3-4.26-.03-4.3-12.28-6.48-14.83-9.5z" class="c"/><path d="M926.17 670.18L916 672a32.58 32.58 0 0 0 .19 5.86s4.72 1.68 6.34.8a12.67 12.67 0 0 0 4.4-4.22c-1.93-2.43-.76-4.25-.76-4.25z" class="a"/><path d="M894.6 427v47.62c3.56 2.8 20.86 81.07 20.86 81.07l-1.95 116c5.16 3.8 13.93.4 14 0 0 0 12.66-51.07 17.28-107.07 5.36-65.05-1.15-136.58-1.88-141.8-6 2.68-30.06 5.38-48.3 4.18z" class="e"/><path d="M874.44 673.36c-1.2-1.67-2.63-4.23-2.63-4.23l-7.88 3.6s-.68.78-.47 3.2a6.17 6.17 0 0 0-.1 5c.7 1.4 5.3 3.05 7.65 4.7 1.9 1.33 5.13 1.8 8.85 1.94s8.42-1.44 8.6-3.6c.33-4.27-11.72-7.4-14.02-10.63z" class="c"/><path d="M873.43 668.8l-10.06 1.1.1 6s4.57 2 6.26 1.28a12.7 12.7 0 0 0 4.72-3.86 5.34 5.34 0 0 1-1.01-4.51z" class="a"/><path d="M866.43 431.93c-18.2 39.5 2.46 101.7.6 131.24l-8.22 107.1c10.66 4.77 17.14-1.14 17.14-1.14s11-46.92 22.1-101.78c8-39.66 9.36-118.84 9-124.12-6.2 2.18-22.53-8.68-40.62-11.3z" class="e"/><path d="M923.35 260.16c-14.14-8.33-30.36 1-37.2 14.1 6.7-1.3 13-2.52 20.4-1.4-2.56 5.46 6.25 36.92 11.52 35.2 23.92-7.75 23.75-37.04 5.27-47.93z" class="c"/><g class="a"><path d="M1059.2 294.63c-1.38-.52-1.38.8-1.64 1.93a23.34 23.34 0 0 1-2.44 6c1.27-1.52 3.07-1 4.46-2.58.56-.6 1-4.84-.38-5.35z"/><path d="M1076.2 291.56c0-.7.38-1.47-.57-1.9s-1.83-1.14-3.45-.5-2.68 1.66-5.16 3.44l-7.8 6c-1.6 1.68-4.15 3-5.08 5.82 0 .16 4 8.06 5.7 8.42 1.87-1.17 11.93-11.33 12.1-11.5 2.8-2.52 5.8-4 3.8-6.3-.5-.55 1.84-2.66.47-3.5z"/><path d="M990.2 340.46c-1.13.7-5.6 13 3.7 14.7 14.3 2.68 54.8-29.13 66.7-43.06-1.75-2.77-4.4-5.1-6.14-8.26-19.62 15.03-43.65 23.85-64.28 36.6z"/><path d="M988.12 336.7c-15.58-.4-44.82-12.55-62.46-8.53-3.2.73-11.6 13.5-5.4 18.86 14.32 12.33 55.36 15 76.64 7.76 8.1-2.8 10.33-17.6-8.78-18.1z"/></g><path d="M994 334.78c-12.25-1.68-58.66-13.67-67.46-15.07-16.8-2.66-14.93 21.7-9.36 27.48 16.65 17.3 61.9 13.92 79.72 10.55s47.6-30.64 63.56-43.62c-2.77-3.78-5.84-7.12-8.72-10.73-15.66 11.04-37.96 20.78-57.74 31.4z" class="b"/><path d="M944.78 352.1c.46-9.53-1.68-21.54-7.78-28.16-2.4-2.6-9.44-6.67-21.43-7.17-6.1-.26-35.63-5.4-49.23 16.58-15.24 24.63-16.65 92.56-11 129 .47 3-1 5.28 13.6 4.6 18.17-.83 34.33 19.4 68.43 4.65 7.14-3.08 8.94-10.4 8.53-14.95-3.28-36.67-2.9-68.55-1.1-104.56z" class="k"/><g class="a"><path d="M896.67 472.7a23.54 23.54 0 0 1-5.16-4c1.13 1.63.13 3.23 1.3 5 .46.7 4.42 2.27 5.3 1.08s-.4-1.52-1.42-2.08z"/><path d="M894.23 473.78c-1.2-2-1.73-4.8-4.24-6.46-.14-.1-8.85 1.72-9.64 3.23.62 2.1 7.7 14.54 7.82 14.74 1.68 3.4 2.28 6.67 5 5.34.68-.32 2.08 2.5 3.27 1.4.68.2 1.3.77 2 0s1.6-1.45 1.4-3.2-.88-3-1.93-5.9c-.36-1.03-2.5-7.18-3.7-9.17z"/><path d="M871.08 393.47c-4.33-.3-8.56-11.63-13.82 2.07s13.37 60.6 23.6 75.93c3.15-.94 6.6-2.8 10.1-3.62-9.23-23-11.8-48.63-18.6-72-.38-1.26-.32-2.3-1.3-2.38z"/><path d="M875.4 332.18c-14.8 12.27-20.4 43-18.58 66.24.7 8.82 14 15.5 19.7-4 4.63-15.87 15.9-32 18.84-50.86.53-3.38-13.56-16.7-19.97-11.38z"/></g><path d="M867.28 336.07c-4.35 7.56-13.25 37.3-13.3 61.57s14.47 52.9 24.37 75.37c5.18-2 10-4.32 15-6.44-7.7-21.1-11.54-43.54-16.55-65.45 5.44-12.16 16.45-46 19.3-57.3 3.17-12.48-18.26-26.07-28.82-7.75z" class="b"/><g class="a"><path d="M900.67 297.5a26.73 26.73 0 0 1-1.86 21.95c5.25 7.52 17 9.28 22.44.9-1-7 .05-14.05.33-21.12-6.72 1.43-14.25-.4-20.9-1.74z"/><path d="M908.5 268.8c-8.27 4.45-9.9 13.52-6.67 22.74 0 .1 2.08 6.1 2.8 8.33 2.12 6.5 11.62 13 18.18 11.16 15.5-4.36 10.87-34.4 8.73-39.3-4.74-10.83-17.98-5.67-23.05-2.94z"/></g><path d="M931.07 246.07c-6.62-2.2-8.72 1-13.82 5.7-7.46 6.9-21.1 4.23-30 12.18-12.9 11.54-2 33.47 5.5 39.83s8.75 2.42 10 .34c3.3-5.75.36-17.46-1.06-23.23.85.9 5.62 6.92 7.12 6.5 3.13-.9.7-7.76-1.2-11.53 9.85-.27 24.23-8.4 28.07-16.84 3.07-6.77.42-11.25-4.62-12.94z" class="c"/><path d="M901 285.88a5.94 5.94 0 0 0-1.36 7.23c1.3 2.36 4.88 3.08 7.35 2.88a45.83 45.83 0 0 0-2-11.36 7.78 7.78 0 0 0-3.99 1.25z" class="a"/><g class="g"><path d="M909.3 329.08c-1.35 2.87 2.68 7.8 5.7 7.2s8.14-7.35 6.26-10.44-10.6.36-11.96 3.24z"/><path d="M914.2 332.8c8.47 26.46 14.58 55.13-4.57 78.54q.62 8.06 1.24 16.13l16.23-2.33c14.3-31.37 7-66.78-10.4-95-.18-.3-2.58 2.35-2.5 2.66z"/></g><g class="b"><path d="M901.06 314.1c-3.14 1.28-5.3.8-7.7 3.28 1.9 6.5 10.4 18.42 10.4 18.42a154.25 154.25 0 0 0 11.43-10.57c-5.47-1.22-12.8-4.58-14.13-11.13z"/><path d="M920.8 316.47c-.6 3.7-2.9 6.38-5.6 8.76 4.3.27 7.14 2.92 9.53 6.2.08-3.28-.1-8.9-.9-11.53s-1.4-2.3-3.04-3.43z"/></g><path d="M764.75 117.92L221 266.53a17.62 17.62 0 0 0-13 17v264.32a17.62 17.62 0 0 0 13 17l543.7 148.6a17.62 17.62 0 0 0 22.26-17V134.9a17.62 17.62 0 0 0-22.21-16.99z" class="j"/><path d="M371.35 448.6l15.33.8v-72.26l-15.33.9v70.55z" class="h"/><path d="M398.13 450l16.67.88V343.42l-16.67 1.77V450z" class="e"/><path d="M427.27 451.55l18.2.96v-97.68l-18.2 1.55v95.17z" class="b"/><path d="M459.12 453.23l19.93 1.04V309.1l-19.93 2.86v141.28zm34.92 1.83l21.95 1.16V245.36l-21.95 4.8v204.9z" class="d"/><path d="M371.35 472.4L516 485.46v-10.18L371.35 464.1v8.28z" class="e"/><path d="M237.77,322.78c-4.8,12.48-7.1,28.07-6.63,44.84.83,29.93,11.06,52.6,23.36,50.46l-1.64-56.66Z" class="b"/><path d="M254.5 418.08c4.77-.84 8.9-4.77 12.78-12.25l-14.43-44.4z" fill="#184866"/><path d="M260.7 306.38l-7.84 55 14.43 44.4c3.73-7.16 6.24-15.65 7.88-26.6 4.68-31.32-2-64.32-14.47-72.8z" class="h"/><path d="M237.77 322.78l15.1 38.64 7.84-55c-8.48-5.8-16.7.3-22.93 16.36z" class="d"/><g fill="#00477d"><path d="M310.53 307.5l19.95-3.76v-9l-19.95 4.07v8.68zm23.05-4.33l7.13-1.35v-9.14l-7.13 1.45v9.04zm-23.05 73.97l18.14-1.2v-8.96l-18.14 1.48v8.7zm13.37 34.74l16.82-.1v-9.14l-16.82.36v8.88zm-13.37.07l10.83-.06v-8.84l-10.83.23v8.67zm0-69.62l10.5-1.34v-8.84l-10.5 1.5v8.68z"/><path d="M319.68 341.16l8.46-1.08v-8.94l-8.46 1.2v8.8zM300.5 294.4c-2.58.55-4.66 5.78-4.66 11.65s2.08 10.3 4.66 9.84 4.74-5.68 4.74-11.68-2.13-10.37-4.74-9.8z"/></g><path d="M300.5 328.6c-2.58.4-4.66 5.5-4.66 11.37s2.08 10.4 4.66 10.1 4.74-5.4 4.74-11.38-2.13-10.5-4.74-10.1z" class="b"/><path d="M300.5 362.8c-2.58.24-4.66 5.2-4.66 11.1s2.08 10.54 4.66 10.4 4.74-5.1 4.74-11.1-2.13-10.64-4.74-10.4z" class="d"/><path d="M300.5 397c-2.58.08-4.66 4.9-4.66 10.8s2.08 10.66 4.66 10.68 4.74-4.82 4.74-10.8-2.13-10.75-4.74-10.68z" fill="#4f93f0"/><path d="M232.14 527.6l20.83 4.74v-56.18l-20.83-2.47v53.9z" class="f"/><path d="M256 483.16l32.23 4.22v-7.06L256 476.5v6.65z" class="d"/><g class="b"><path d="M304.34 489.5l40.96 5.37v-7.8l-40.96-4.85v7.27zM256 499.12l42.56 6.9v-7.2L256 492.47v6.65zm24.4 20.65l7.88 1.52v-7.06l-7.88-1.42v6.96zm11.12 2.13l12.6 2.44v-7.27l-12.6-2.27v7.1zm16.04-14.43l37.74 6.12v-7.8l-37.74-5.62v7.3zm-51.56 7.6l19.04 3.68v-6.9L256 508.4v6.65zm0 17.94l71.55 16.28v-7.56L256 526.36V533zm10.16 18.6l79.14 20.45v-7.8l-79.14-19.43v6.78zm-34.02-8.8l30.2 7.8v-6.73l-30.2-7.42v6.34z"/><path d="M372.18 521.6l24.95 4.2v-8.05l-24.95-3.88v7.74zm0 19.16l39.34 7.8v-8.23l-39.34-7.3v7.75zm37.52-12.86l41.9 7.03v-8.7l-41.9-6.52v8.2zm50.9 8.55l24.82 4.17v-9.13l-24.82-3.86v8.82zm-5.8 20.67l56.77 11.25v-9.46l-56.77-10.55v8.76zm-82.62 2.73l24.95 5.7v-8.04l-24.95-5.4v7.74zm0 19.15l85.6 22.12v-8.8l-85.6-21.07V579zm37.52-10.6l55.52 12.67v-8.87l-55.52-12v8.2zm67.76 15.47l34.1 7.8v-9.45l-34.1-7.37v9.03zm-7.72 20.33l61.02 15.76v-9.68l-61.02-15.02v8.94zm-48.8-53.8l20.94 4.15v-8.6l-20.94-3.9v8.34z" class="i"/></g><g class="d"><path d="M555.77 411.4l11.65-.06v-84.4l-11.65 1.25v83.22z"/><path d="M547.28 336l29.06-2.85-14.78-40.2L547.28 336z"/></g><g class="e"><path d="M602.13 411.17l13.03-.06V289.58l-13.03 1.86v119.73z"/><path d="M592.67 300.1l32.47-4.38-16.54-41.82-15.93 46.2z"/></g><g class="d"><path d="M651 410.94l14.55-.07v-159.2L651 254.24v156.7z"/><path d="M640.43 263.82l36.28-6.1-18.5-43.45-17.78 49.54z"/></g><g class="h"><path d="M718.12 410.62l16.8-.08v-208.1l-16.8 3.58v204.6z"/><path d="M705.96 216.9l41.86-8.58-21.37-45.63-20.5 54.2z"/></g><path d="M553.6 464.6l44.13 2.67v-12.2l-44.13-2.05v11.58zm87.77 5.32l60.66 3.67v-13.7l-60.66-2.8v12.82zm-87.77 14.9l28.7 2.45v-12l-28.7-2.04v11.58zm0 20.27l92.98 10.25v-12.9l-92.98-8.93v11.58zm40.3-16.83l60.44 5.16v-13l-60.44-4.3v12.15zm70.92 6.05l37.2 3.18v-13.7l-37.2-2.64v13.15zm50.6 4.32l51.28 4.38v-14.6l-51.28-3.65v13.87zm-58.57 17.84l64.62 7.12v-13.96l-64.62-6.2v13.04zm-51.03-48.7l24.07 1.46v-12.66l-24.07-1.12v12.32zm-25.5 82.1l26.8 4.3V541.8l-26.8-3.9v11.96zm41.77 6.68l96.05 15.36v-13.92l-96.05-14v12.55zm-73.05 8.42l49.5 9.15v-12.2l-49.5-8.43v11.5zm4.55 21.12l56.12 11.76v-12.38L553.6 574.5v11.58zm0 20.27l38.1 8.93V603.1l-38.1-8.38v11.63zm68.5-5.92l48.94 10.26v-13.25l-48.94-9.56v12.55zm-21.34 16.97l83.37 19.55v-13.5l-83.37-18.35v12.3zm92.5 21.7l26.1 6.12v-14l-26.1-5.75v13.62zm-110.12-4.87l38.1 9.87v-12.54l-38.1-9.33v12zm44.53 11.54l80.06 20.76v-13.77l-80.06-19.62v12.63zm90.4 23.43l29.2 7.58v-14.33l-29.2-7.16v13.9z" class="b i"/><g class="a"><path d="M553.87 382.3c-.9.37-.15 4.57.47 5.3 2 1.3 2.8.1 4.54 1.6a20.38 20.38 0 0 1-3.19-5.28c-.37-1.05-.48-2.3-1.82-1.62z"/><path d="M545.9 381.43c-1.2-.52-4.05-2.22-5.08-2.34a5.5 5.5 0 0 0-3.08 1 1.64 1.64 0 0 0-.17 1.83c-1.14.8 1.4 3.25 1.07 3.38-1.32.55-1 2.53 3.6 4.68.27.13 10.45 7.63 13.9 9.76 1.48-2 4.2-9.38 4.12-9.48a50.61 50.61 0 0 0-5.77-4.24c-2.4-1.5-8.16-4.4-8.57-4.6zm131.87-1.53c-10.5 4.12-39.36 23.76-55.38 31.42-19.66 9.4-6.08 19.76.8 18.83 18.1-2.44 66.58-17.73 66.3-27.24-.13-4.13-9.8-23.76-11.7-23z"/></g><path d="M675.8 377.9c-8 .23-23.45 12.5-39 20.14.63 8.05 5.5 20.82 12.33 29 19.72-6 35.76-15.07 39.9-19.87 10.64-12.4-1.97-29.6-13.24-29.27z" class="k"/><path d="M625.33 415.15c-11-5.32-55.1-18-65.66-25.32a40.67 40.67 0 0 1-4.89 9.07c17.62 11.77 64.82 36.12 71.32 30.7 5.95-5 3.85-10.38 1.1-13.07a7.48 7.48 0 0 0-1.88-1.37z" class="a"/><path d="M813 369.2c-11.57-2.92-23.72-3.23-35.15-6.68s-22.7-11.1-25.64-22.68c-1.63-6.43-1-20.07-3.8-26.07-12.64-26.82-46.5-16.46-53-6.06-16.82 26.92-7.6 65-7.3 81.66.12 6.53 11.9 30.16 15.13 35.83 4.7 8.22 32.85 35.2 39.23 43.18 9.7 12.14 24.7 19.23 40 21.77 19.17 3.18 39.72-.5 55.66-11.63s26.67-30 26.44-49.4c-.27-28.35-24.06-52.97-51.57-59.9z" fill="#ffed55"/><path d="M769.5 377.7c-7.1-1.8-14.52-2-21.52-4.1s-13.9-6.8-15.7-13.88c-1-3.93-.6-12.3-2.33-16-7.74-16.42-28.46-10.08-32.45-3.7-10.3 16.47-4.65 39.8-4.46 50 .07 4 7.28 18.46 9.27 21.93 2.87 5 8.84 7.3 13.1 11.23 4.6 4.25 7 10.32 10.9 15.2 5.94 7.43 15.13 11.77 24.5 13.33 11.74 1.95 24.32-.3 34.07-7.12s16.33-18.35 16.2-30.24c-.2-17.36-14.76-32.36-31.6-36.65z" fill="#ffdd4d"/><path d="M736.55 798.1l-9.55-5.3-3.72 5c-3.22 3.82-18.65 6.58-18.65 12 0 2.73 5.75 5.2 10.43 5.37s8.8-.08 11.3-1.55c3.13-1.84 9.08-3.48 10.08-5.16a7.78 7.78 0 0 0 .37-6.32c.5-2.98-.27-4.03-.27-4.03z" class="e"/><path d="M723.3 797.83s-2.8 2.42.8 4.4c2 1.13 12.73-.08 12.73-.08.5-3 2.56-25.56 2.56-25.56l-13.48 8.13s.4 10.1-2.62 13.1z" class="a"/><path d="M693.7 513.87l29.75 281.88c9 3.18 14.9-.66 15-1.17 0 0 2.84-130.74 13.23-218.15 2.8-23.47 11.66-43.6-6.08-67.8-6.16 3.37-33.25 6.75-51.9 5.24z" class="g"/><path d="M688.8 798.1l-9.54-5.3-3.72 5c-3.22 3.82-18.66 6.58-18.66 12 0 2.73 5.75 5.2 10.44 5.37a32.14 32.14 0 0 0 11.31-1.55c2.76-.9 9.08-3.48 10.08-5.16a7.76 7.76 0 0 0 .37-6.32c.5-2.98-.28-4.03-.28-4.03z" class="e"/><path d="M675.54 797.83c-.8.8-3 2.43.62 4.42 3.18 1.75 12.92-.1 12.92-.1.5-3 1.2-11.06 1.2-11.06l-12.17-.25s.17 4.2-2.57 6.98z" class="a"/><path d="M656.75 525c-4.46 14 19.87 269.62 19.87 269.62.13.5 8.8 5.48 16.08.47l15.8-281.18c-18.67 1.47-49.63 4.36-51.76 11.1z" class="g"/><g class="a"><path d="M696.87 348.44c-.07 1.3 1.68 15.38-1.7 22.6.63 7 18 8.47 23.7-2.86-1.72-3.5-.92-27 .44-33.3-1.53 1.06-18.24 14.65-22.45 13.58z"/><path d="M703.86 312.52c-9.6-1.44-19.13 0-22 9-1 3.2-2 32.8 13.34 38.53 6.5 2.43 20.2-7.9 21.35-15.6l1.6-10.6c1.53-10.24-3.98-19.77-14.3-21.32z"/></g><path d="M746.66 462.7c2.68-33 12.55-67.85-4-82.84-3.75-3.4-23.76-11.7-23.76-11.7s-9.8 8.2-16.66 8.15c-4.7 0-7-5.3-7-5.3s-17.1 5.53-20.3 7.1c-10 4.86-2.1 13.77-9.37 24.37-14.77 21.56-.7 39.2 0 50 1.36 20.7-12.4 47.3-12.4 77.86 32.08 18.35 96.1 11.07 104.5 0-1-28.28-13.1-42.04-11-67.64z" class="e"/><path d="M690.8 309c-15.14-2.88-16.08 24.68-8.74 28.84-2.15-18.2 10.46-23 10.46-23 28.24 4.3 24.7 30 25.63 34.06 0 0 26.9-18 7.82-39.5-12.98-14.5-29.64-11.55-35.17-.4z" fill="#ffed55"/><g class="a"><path d="M715.23 323.54a8.83 8.83 0 0 0-4.28 1.61 125.75 125.75 0 0 0 4.83 11.77c2.47-.85 3.72-4.64 3.55-7.17-.18-2.7-1.42-6.4-4.1-6.2zm-9.7 219.86c-1 .53-2.16.8-1.33 2.05.54.8 4.54-.54 5.17-1.28 1-2.22 1.8-3.55 1.3-5a24.07 24.07 0 0 1-5.15 4.23z"/><path d="M708.7 542.8c-.85 2.17-2.13 7.32-2.22 7.68-.2 1.07-1.06 3.63-.94 4.54a6 6 0 0 0 1.67 2.65 1.55 1.55 0 0 0 1.7.07c1 1 2.62-1.35 2.82-1.07.8 1.13 2.53.75 3.4-3.33.05-.24 4.5-9.43 5.62-12.53a70.26 70.26 0 0 0-8.89-3.57 40.84 40.84 0 0 0-3.17 5.56zm36.45-143.92c-3.78-1.65-21.9 1.44-22 3.48-.78 11.27 2 42.42 2 60.2.1 21.8 15.26 13.95 17.36 7.34 5.5-17.4 11.35-67.2 2.64-71z"/></g><path d="M717.36 389.35c-3.83 7 .48 33.75.72 51.1 5.7.88 32.24-1.64 34.58-1.86 3-20.37-.62-49.6-4.82-54.35-5.03-5.73-24.6-5.62-30.48 5.1z" class="k"/><g class="a"><path d="M727.07 466.86a7.38 7.38 0 0 0-1.06 2.06c-3.6 11.67-8.56 57-14.24 68.6a32.5 32.5 0 0 1 8.86 3.6c9-19.2 27.23-68 19.53-75.14-5.7-5.27-10.85-2.24-13.1.88zm-440.8-80.06a4.13 4.13 0 0 0-2.17-1.19 27.48 27.48 0 0 0-4.12 1.07l-7 2.35a39.1 39.1 0 0 0-4.89 2.41 38.9 38.9 0 0 0 1.83 7.65c2.86-1.14 11.48-5.4 11.7-5.47 3.7-1 4.24-2.44 3.32-3-.23-.15 2-1.64 1.25-2.4a1.24 1.24 0 0 0 .08-1.43zm-69.83 12.06c-12.45-5.25-37.74-15.44-45.88-18.2-1.48-.5-5.47 11.07-5.42 14.2.12 7.24 37.53 17.13 51.38 18.33 5.25.46 15.2-7.9-.08-14.34z"/><path d="M216 401.4a5.59 5.59 0 0 0-1.59.78c-2.4 1.64-4.7 5.42-.9 9.94 4.15 4.93 42.74-7.06 57.52-13.54a30.79 30.79 0 0 1-2.47-7.44c-8.93 4.1-43.65 7.73-52.57 10.26z"/></g><path d="M348.66 297L269 395.4a1.89 1.89 0 1 0 2.86 2.33h0l78.2-99.6a1 1 0 0 0 0-1.43 1 1 0 0 0-1.4.3z" class="c"/><path d="M265.8 396.75a9.51 9.51 0 0 1-.43-6c-6.8.85-42.68 7.53-46.52 8.2-11.7-5.3-43.27-18.22-47.4-19.7a2.19 2.19 0 0 0-2 .28c-2.65 1.76-6 10.9-6 14.13 0 9.6 40.3 20.3 51.26 21.44 10.55 1.25 41.65-8.23 54.4-13.6a17.46 17.46 0 0 1-3.32-4.77z" class="d"/><path d="M272.3 387.23a15.57 15.57 0 0 1-3.09 3.53c-.1 1 1.77 1.8 2.83.9.56-.48 2.48-5 1.85-5.4-.9-.7-1.16.23-1.6.97z" class="a"/><path d="M178.45 353.88c-2.6-4.64-11.4 3.58-11.47 3.76-1.62 4.08-2.5 11.74-3.9 17.27-.3 1.25 16.12 7.57 15.22 4.52-2.5-8.43 1.7-19.98.15-25.55zm-77.22 310.87c-.25-1.8-7.52-5.43-9.1-4-.82.75-3 1.6-2.66 4 .37 2.6 2.73 2.07 4.8 6.62a11.62 11.62 0 0 0 5.09 6.25c2.78 1.74 10.1.88 11.36-.55 2.5-2.88-8.48-5.15-9.48-12.32z" class="c"/><g class="a"><path d="M92.12 660.75a6.46 6.46 0 0 0 3.74 4.25c5.08 1.9 5.37-.23 5.37-.23a12.23 12.23 0 0 1 .66-3.86l-7.8-3.12a6.82 6.82 0 0 1-1.98 2.96z"/><path d="M118.52 549.46c.86 8.88-6.8 16.75-24.43 108.3a16.14 16.14 0 0 0 7.45 4.38c10.36-38.7 42.55-86.24 43.52-113 0 0 5.8-39 7.1-67.35l-38.62 5.4c2.6 25 3.15 43.47 4.98 62.25z"/><path d="M147.9 564c-2.93 31.22 9.22 104.56 9.22 104.56a9.71 9.71 0 0 0 7.57-1.58s1.8-54.24 6.17-105c1.6-18.46 5.44-29.52 8.46-58.05L138.7 491.7c1.68 48.55 11.1 52 9.2 72.3zm4.98-209.2c-1.36 3.27-2.6 16.73-4.43 18.88 2.72 8.6 16.08 10.16 17.57 5.44-3.65-4.63.33-13.4 2-15.72-3.37.1-14.13-7.66-15.14-8.6z"/></g><path d="M178.2 435.1c.2-3.36 10.36-11.1 10-20.07-.33-7.86-7.66-13.4-10.6-27.46-1.18-5.63-11.55-8.44-11.55-8.44s-.05 1.4-3.27 2.08c-5.06 1.08-14.3-7.52-14.3-7.52-9.15 4.72-17.28 10.6-18.58 21.9-1.14 9.94-.37 31.4-5.36 51.47-6.25 25.1-20.92 54.45-27.65 87.58 31.3 18 77.1 12.7 92.88 5.85-2.84-34.37-14.94-49.5-11.58-105.4z" class="g"/><path d="M168 339.32c-6.56-.33-13.1 5.13-13.42 11.62a3753.28 3753.28 0 0 0 .52 7.41c-.24 4.9 6.92 13 11.23 12.3 10.2-1.63 13.26-20 13-22.1-.68-5.88-5.27-8.9-11.33-9.2z" class="a"/><path d="M177.73 335.2a9.69 9.69 0 0 0-6.16-1.61c-3.16-9.38-18.65-8.4-26.2-2-7.26 6.12-15 20.33-8.47 40.53 2.1 6.52 17.42 13 16.72 8.75-1.35-8.26 1.15-32 7.94-37.05a15.64 15.64 0 0 1 13.74-2.24s5 5.06 1.35 18.48c5.98-4.52 7.8-20.43 1.07-24.86z" class="c"/><path d="M155.55 349.07c-1.7.17-3.16 3.1-2.35 5.35.54 1.5 1.55 3.14 3.17 3.42a79 79 0 0 0 1.78-7.8 3 3 0 0 0-2.6-.97z" class="a"/><path d="M89.4 664.35l1.95 9.74c.1.15.7.07.7-.1.05-1.2-1.25-9.84-1.25-9.84zm76 .25c-.74-1.66-8.8-2.92-9.9-1.08-.56 1-2.47 2.2-2.47 4.58 0 3.7 3.76 2.2 6.4 5 1.4 1.48 5.35 4.94 8.83 4.94 3.28 0 8.32-.34 9.1-2.08 1.55-3.47-8.36-3.2-11.95-11.36z" class="c"/><path d="M164.83 660l-8.14-.57a20.14 20.14 0 0 1-1.16 4s6.3 2.76 7.93 2.87c3.12.2 2.3-1.23 2-1.8a6.12 6.12 0 0 1-.63-4.51z" class="a"/><path d="M153.68 670a52.4 52.4 0 0 1 2.14 7.85c0 .17.66.17.7 0 .26-.85-1.43-9.92-1.43-9.92z" class="c"/><g class="a"><path d="M200.6 473.45a15.58 15.58 0 0 1-4.69-.32c1.63.66 1.07 1.58 2.67 2.5.72.17 3.82-.8 3.76-1.53 0-1.1-.9-.78-1.74-.66z"/><path d="M205.72 479.2l-6.14-4.18a38.93 38.93 0 0 0-4.88-2.43 39.28 39.28 0 0 0-5 6.1c2.64 1.6 11.26 5.85 11.44 6 3 2.34 4.5 1.9 4.42.8 0-.26 2.5.6 2.66-.45a1.25 1.25 0 0 0 1.17-.75 4.13 4.13 0 0 0-.37-2.45 27.08 27.08 0 0 0-3.3-2.64zm-56.1-92.07c-.5-1.48-11.15 2.84-13.6 4.8-5.7 4.48 2.68 41.15 10.1 52.9 2.82 4.46 15.5 7.3 11.37-8.75-3.38-13.06-5.12-40.78-7.87-48.93z"/><path d="M153.62 436.44c-2.77-.92-7.16-.45-8.45 5.3-1.4 6.3 31.53 29.72 45.63 37.54a30.86 30.86 0 0 1 4.43-6.47c-8.67-4.58-32.6-30-40-35.6a5.51 5.51 0 0 0-1.61-.79z"/></g><path d="M151.34 386.7c-5.1-6.56-16.75-3.08-19.07 5.66-2.46 9.27 5.6 42.5 11.35 51.92 5.4 9.15 31.8 28.14 43.8 35 0 0-.4-2.3 1.73-5.4a11.54 11.54 0 0 1 4.53-4.15c-11.42-9.73-31.85-29.38-34.73-32-.13-1-4.94-47.58-7.6-51.03z" class="d"/><path d="M622.67 709.8c-5.56-15.27-28.22-14-21.24-33.88 1.65-4.7 7.66-13.2-1.1-19-4.55-3-11-1.48-15 2.35-3.32 3.2-11.55 18.83-24 29.9-5 4.4-5.64 12.1-3.9 18s8.33 13.63 9.47 22.78c.68 5.4-4.26 13.7-5.36 18.58-2.3 10.07-1.1 19.67 5.66 27.33s24.7 8.73 33 6.7c9.14-2.26 22.46-10 22.46-24.5a11.44 11.44 0 0 0-7.07-10.34c-2.82-1-5.36-2.48-6.33-5.4-.64-1.94 16.37-24.4 13.42-32.5z" class="f"/><g class="b"><path d="M590.3 701.1c-.3 6.62-.45 13.24-.56 19.85l-.18 19.86.17 19.86.57 19.85c.3-6.62.45-13.24.57-19.85l.17-19.86-.17-19.86-.57-19.85z"/><path d="M578.7 725.6a25.37 25.37 0 0 0-4.91-4.85 64.14 64.14 0 0 1 4 5.54l4 5.55a114.09 114.09 0 0 0 8.91 10.45 113 113 0 0 0-7.7-11.34l-4.3-5.35zm13.85 39.27l-1.4 2.07a3.89 3.89 0 0 0-.68 2.44 4.25 4.25 0 0 1 1.25-2l1.7-1.77 3.34-3.6 6.36-7.55a39.61 39.61 0 0 0-7.45 6.57 47.72 47.72 0 0 0-3.13 3.85zm-1.8-39.97a49.1 49.1 0 0 0 6.25-9c1.8-3.15 3.44-6.34 5.1-9.62a43.62 43.62 0 0 0-6.36 8.88c-1.8 3.2-3.45 6.4-4.98 9.74z"/></g><path d="M628.87 714.66c-2.53-2.8-5.86-5.4-9.48-4.83s-5 3.66-5.5 6.68 1.07 6.16 2.1 8.6 2.28 4.27 1.38 6.72c-1.9 5.2-8.95 6.08-11.3 10.66-1.22 2.36-.7 4.28.07 6.3s1.58 2.74 1.94 4.9a5.18 5.18 0 0 1-.57 3.49c-1.27 2.42-4.27 4.17-6.15 6.2-3.86 4.18-5.68 9.58-3.48 14.9s8.22 6.25 13.3 6.25c5.7 0 23.22-3.45 20.26-18.22-3.26-16.22 5.53-18.36 7.47-25.1 2.42-8.37-1.18-13.86-5.08-20.64-1.4-2.44-3.27-4.04-4.95-5.9z" class="f"/><g class="b"><path d="M613.65 759.85l-4.53 11.12-4.17 11.27c1.84-3.57 3.54-7.2 5.2-10.83l4.85-11c1.6-3.7 3.1-7.38 4.53-11.12l4.17-11.27c-1.84 3.57-3.54 7.2-5.2 10.83s-3.27 7.32-4.85 11z"/><path d="M614 744.83a8.36 8.36 0 0 0-2.57-3.45 16 16 0 0 1 1.49 3.83l.83 4c.52 2.7.82 5.53 2 8.16a54.87 54.87 0 0 0-.58-8.41 18.19 18.19 0 0 0-1.17-4.13zm1.12 25.9a9.28 9.28 0 0 0-3.25.47 6.44 6.44 0 0 0-2.77 2 7.31 7.31 0 0 0-1.42 2.93c1.52-1.55 2.9-2.9 4.7-3.5a19 19 0 0 1 2.87-.72 7.86 7.86 0 0 0 3-1.11c-1.07.03-2.06-.1-3.12-.07z"/></g><path d="M621.52 744.66a6.65 6.65 0 0 0-1.9 3 14.86 14.86 0 0 1 2.63-2.13q1.4-.92 2.85-1.8a33.44 33.44 0 0 0 5.63-4 26.37 26.37 0 0 0-6.4 2.78 16.21 16.21 0 0 0-2.81 2.15z" fill="#0e2529"/><path d="M628.87 714.66c-2.13-2.34-4.83-4.55-7.8-4.85 5.14 2.35 6.48 8.46 6.47 15.63 0 8.75-14.12 18.25-4.55 27.53 5.6 5.42 5.68 9.24 8.27 12.4-2.73-15.36 5.72-17.58 7.63-24.2 2.42-8.37-1.18-13.86-5.08-20.64-1.4-2.44-3.27-4.04-4.95-5.9z" fill="#3fc475"/><path d="M636.84 772.05h-76.6a6 6 0 0 0-6 6v4.67a6 6 0 0 0 6 6h76.6a6 6 0 0 0 6-6V778a6 6 0 0 0-6.01-5.95z" class="b"/><path d="M568.37 825.27a5.63 5.63 0 0 0 5.51 4.45h49.32a5.64 5.64 0 0 0 5.51-4.45l7.88-36.6h-76.1z" fill="#def1ff"/><path d="M1074.5 542.72a34.51 34.51 0 0 0 34.45-34.5l-34.42-.5z" class="b"/><path d="M1068.9 468.2a34.32 34.32 0 0 0-24 9.82l24.1 24.1 34.42.5a34.51 34.51 0 0 0-34.53-34.44z" class="h"/><path d="M1034.44 502.7a34.51 34.51 0 0 0 34.5 34.45v-35l-24.1-24.15a34.36 34.36 0 0 0-10.41 24.7z" class="d"/><g clip-path="url(#B)"><path d="M1110.6 626.62c-6.7-6.45-17.53-9-25.18-4-14.76 9.8-4.65 24.14-1.88 32 11.74 33.42-26.4 31.33-35.74 57-5 13.63 23.66 51.4 22.6 54.58-1.63 4.9-5.9 7.47-10.65 9.08s-11.9 8.12-11.9 17.4c0 24.5 22.4 37.44 37.8 41.24 13.92 3.44 44.1 1.64 55.5-11.25s13.37-29.05 9.52-46c-1.86-8.2-10.17-22.18-9-31.26 1.93-15.4 13-28.44 15.94-38.32s1.78-22.85-6.57-30.26c-21-18.53-34.83-44.83-40.4-50.2z" class="f"/><g class="b"><path d="M1102.25 697.06c-.5 11.14-.75 22.27-.94 33.4l-.3 33.4.3 33.4.95 33.4c.52-11.14.75-22.27 1-33.4l.3-33.4-.3-33.4-1-33.4z"/><path d="M1121.77 738.26c-2.5 2.94-4.87 6-7.23 9a191 191 0 0 0-13 19.09 191.21 191.21 0 0 0 15-17.58l6.8-9.34a105.67 105.67 0 0 1 6.74-9.32 42.7 42.7 0 0 0-8.3 8.15zm-23.3 66.08a78.47 78.47 0 0 0-5.25-6.5 66.9 66.9 0 0 0-12.53-11.05c3.36 4.5 7 8.58 10.7 12.7l5.6 6.08 2.87 3a7.13 7.13 0 0 1 2.11 3.38 6.59 6.59 0 0 0-1.14-4.11 46.4 46.4 0 0 0-2.35-3.5zm-16.02-98.5c2.77 5.5 5.53 10.87 8.56 16.18s6.28 10.53 10.5 15.07c-2.57-5.6-5.33-11-8.36-16.3s-6.33-10.53-10.7-14.94z"/></g><path d="M1063.1 792.84a8.68 8.68 0 0 1-.95-5.87c.6-3.65 2-4.88 3.26-8.26s2.17-6.63.13-10.6c-4-7.7-15.83-9.22-19-17.95-1.52-4.12.58-7.2 2.32-11.3s4.35-9.37 3.54-14.45-3.14-10.28-9.23-11.24-11.7 3.45-16 8.14c-2.82 3.1-6 5.8-8.34 9.9-6.56 11.4-12.62 20.64-8.55 34.72 3.28 11.36 18.06 15 12.58 42.24-5 24.87 24.5 30.66 34.08 30.66 8.52 0 18.66-1.55 22.36-10.5s.64-18.05-5.86-25.08c-3.15-3.4-8.2-6.35-10.34-10.42z" class="f"/><g class="b"><path d="M1052.78 797.35l-8.15-18.5-8.77-18.22c2.16 6.4 4.57 12.7 7 19s5 12.5 7.62 18.7 5.3 12.37 8.15 18.5l8.77 18.23c-2.15-6.4-4.57-12.7-7-19s-5.02-12.52-7.62-18.72z"/><path d="M1052.17 772.07a30.39 30.39 0 0 0-2 6.95 93.57 93.57 0 0 0-1 14.16c2-4.42 2.54-9.2 3.4-13.73.38-2.28.83-4.53 1.4-6.74a26.75 26.75 0 0 1 2.51-6.44 14 14 0 0 0-4.32 5.8zm3.6 44.37a15.69 15.69 0 0 0-5.47-.8h-5.27a13.38 13.38 0 0 0 5.06 1.87 32 32 0 0 1 4.83 1.21c3 1 5.34 3.28 7.9 5.9a12.19 12.19 0 0 0-2.39-4.93 10.8 10.8 0 0 0-4.65-3.24z"/></g><path d="M1034.83 768.14a43.9 43.9 0 0 0-10.77-4.67c2.9 2.8 6.26 4.74 9.47 6.78q2.45 1.48 4.8 3a25.2 25.2 0 0 1 4.43 3.59 11.26 11.26 0 0 0-3.2-5.08 27 27 0 0 0-4.72-3.62z" fill="#0e2529"/><path d="M1040.27 713.15c-5 .52-9.53 4.22-13.1 8.17-2.82 3.1-6 5.8-8.34 9.9-6.56 11.4-12.62 20.65-8.55 34.73 3.2 11.14 17.43 14.87 12.84 40.7 4.36-5.33 4.5-11.77 13.92-20.88 16.1-15.6-7.63-31.6-7.65-46.32-.03-12.1 2.22-22.37 10.88-26.32z" fill="#3fc475"/><path d="M1154.78 816.44H1015a4.59 4.59 0 0 0-4.6 4.6v18.78a4.59 4.59 0 0 0 4.6 4.59h139.8a4.59 4.59 0 0 0 4.59-4.59V821a4.59 4.59 0 0 0-4.62-4.56z" fill="#def1ff"/><path d="M1034.1 906a9.49 9.49 0 0 0 9.27 7.48h83a9.47 9.47 0 0 0 9.26-7.48l13.26-61.56h-128z" fill="#bccfe1"/></g></svg>